# xmcd
#
# Track frame offsets:
#	150
#	17674
#	35823
#	50986
#	68188
#	82822
#	96844
#	112016
#	128942
#	144390
#	161705
#	179127
#	198957
#	216264
#	236233
#	256401
#
# Disc length: 3677 seconds
#
# Revision: 1
# Processed by: cddbd v1.5PL3 Copyright (c) Steve Scherf et al.
# Submitted via: CDex 1.50Beta5
#
DISCID=f50e5b10
DTITLE=堀ちえみ - MYこれ!クション 堀ちえみ BEST
DYEAR=2001
DGENRE=Pop
TTITLE0=潮風の少女
TTITLE1=真夏の少女
TTITLE2=まちぼうけ
TTITLE3=とまどいの週末
TTITLE4=さよならの物語
TTITLE5=夏色のダイアリー
TTITLE6=青い夏のエピローグ
TTITLE7=夕暮れ気分
TTITLE8=白いハンカチーフ
TTITLE9=稲妻パラダイス
TTITLE10=東京Sugar Town
TTITLE11=クレイジーラブ
TTITLE12=リボン
TTITLE13=Deadend Street GIRL
TTITLE14=青春の忘れ物
TTITLE15=愛を今信じていたい
EXTD=
EXTT0=
EXTT1=
EXTT2=
EXTT3=
EXTT4=
EXTT5=
EXTT6=
EXTT7=
EXTT8=
EXTT9=
EXTT10=
EXTT11=
EXTT12=
EXTT13=
EXTT14=
EXTT15=
PLAYORDER=
